<svg xmlns="http://www.w3.org/2000/svg" xmlns:xlink="http://www.w3.org/1999/xlink" width="2000" zoomAndPan="magnify" viewBox="0 0 1500 1499.999933" height="2000" preserveAspectRatio="xMidYMid meet" version="1.0"><defs><clipPath id="ea29e5899b"><path d="M 751 112 L 1251 112 L 1251 612 L 751 612 Z M 751 112 " clip-rule="nonzero"/></clipPath><clipPath id="f2f5ec8f8f"><path d="M 502.625 362.320312 L 1001.136719 -136.1875 L 1499.648438 362.320312 L 1001.136719 860.832031 Z M 502.625 362.320312 " clip-rule="nonzero"/></clipPath><clipPath id="9c34d6773f"><path d="M 502.625 362.320312 L 1001.136719 -136.1875 L 1499.648438 362.320312 L 1001.136719 860.832031 Z M 502.625 362.320312 " clip-rule="nonzero"/></clipPath><clipPath id="4efc39d08a"><path d="M 150 362.324219 L 855 362.324219 L 855 903 L 150 903 Z M 150 362.324219 " clip-rule="nonzero"/></clipPath><clipPath id="f66f61f879"><path d="M 576.875 850.242188 L 1133.375 850.242188 L 1133.375 1432.242188 L 576.875 1432.242188 Z M 576.875 850.242188 " clip-rule="nonzero"/></clipPath></defs><g clip-path="url(#ea29e5899b)"><g clip-path="url(#f2f5ec8f8f)"><g clip-path="url(#9c34d6773f)"><path fill="#000945" d="M 1250.632812 112.984375 C 1001.296875 362.320312 1001.296875 362.320312 1250.632812 611.65625 C 1001.296875 362.320312 1001.296875 362.320312 751.960938 611.65625 C 1001.296875 362.320312 1001.296875 362.320312 751.960938 112.984375 C 1001.296875 362.320312 1001.296875 362.320312 1250.632812 112.984375 Z M 1250.632812 112.984375 " fill-opacity="1" fill-rule="nonzero"/></g></g></g><g clip-path="url(#4efc39d08a)"><path fill="#000945" d="M 650.554688 902.710938 L 854.550781 362.324219 L 354.691406 362.324219 L 150.695312 902.710938 Z M 650.554688 902.710938 " fill-opacity="1" fill-rule="nonzero"/></g><g clip-path="url(#f66f61f879)"><path fill="#000945" d="M 576.890625 850.128906 L 1133.636719 850.128906 L 1133.636719 1432.242188 " fill-opacity="1" fill-rule="nonzero"/></g></svg>
